<svg xmlns="http://www.w3.org/2000/svg" xmlns:xlink="http://www.w3.org/1999/xlink" width="355.245" height="219.236" viewBox="0 0 355.245 219.236">
  <defs>
    <linearGradient id="linear-gradient" x1="0.5" y1="1.783" x2="0.5" y2="0.155" gradientUnits="objectBoundingBox">
      <stop offset="0" stop-color="#fffdc0"/>
      <stop offset="1" stop-color="#fbcf7c"/>
    </linearGradient>
    <linearGradient id="linear-gradient-2" y1="0.5" x2="1" y2="0.5" gradientUnits="objectBoundingBox">
      <stop offset="0" stop-color="#febd85"/>
      <stop offset="1" stop-color="#ffd9b8"/>
    </linearGradient>
    <clipPath id="clip-path">
      <path id="Path_24566" data-name="Path 24566" d="M2997.846,3191.052h19.826a1.992,1.992,0,0,1,1.992,1.992,1.992,1.992,0,0,0,1.992,1.992h7.192a1.992,1.992,0,0,0,1.992-1.992,1.992,1.992,0,0,1,1.992-1.992h19.826a3.525,3.525,0,0,1,3.525,3.525v96.205a2.864,2.864,0,0,1-2.812,2.912h-56.239a2.863,2.863,0,0,1-2.811-2.912v-96.205A3.525,3.525,0,0,1,2997.846,3191.052Z" fill="none"/>
    </clipPath>
    <linearGradient id="linear-gradient-5" x1="0.472" y1="0.5" x2="0.151" y2="0.783" gradientUnits="objectBoundingBox">
      <stop offset="0" stop-color="#ffbd49"/>
      <stop offset="1" stop-color="#fdaf32"/>
    </linearGradient>
    <linearGradient id="linear-gradient-6" x1="0" y1="0.5" x2="1" y2="0.5" xlink:href="#linear-gradient-5"/>
    <linearGradient id="linear-gradient-7" x1="0.5" y1="-11.305" x2="0.5" y2="-83.758" xlink:href="#linear-gradient-5"/>
    <linearGradient id="linear-gradient-8" x1="0" y1="0.5" x2="1" y2="0.5" xlink:href="#linear-gradient-5"/>
    <linearGradient id="linear-gradient-9" x1="0" y1="0.5" x2="1" y2="0.5" xlink:href="#linear-gradient-5"/>
    <linearGradient id="linear-gradient-10" x1="-150.375" y1="-0.105" x2="-150.375" y2="0.782" gradientUnits="objectBoundingBox">
      <stop offset="0" stop-color="#fff"/>
      <stop offset="1" stop-color="#bababa"/>
    </linearGradient>
    <linearGradient id="linear-gradient-11" x1="0.752" y1="0.859" x2="0.286" y2="0.196" gradientUnits="objectBoundingBox">
      <stop offset="0" stop-color="#ffbd49"/>
      <stop offset="1" stop-color="#ffcb5a"/>
    </linearGradient>
    <linearGradient id="linear-gradient-12" x1="0.612" y1="0.5" x2="0.037" y2="0.5" gradientUnits="objectBoundingBox">
      <stop offset="0"/>
      <stop offset="1" stop-color="#fff"/>
    </linearGradient>
    <linearGradient id="linear-gradient-13" x1="0.395" y1="0.758" x2="0.705" y2="-0.003" xlink:href="#linear-gradient-11"/>
    <linearGradient id="linear-gradient-14" x1="0.5" y1="0.934" x2="0.5" y2="0.331" xlink:href="#linear-gradient-11"/>
  </defs>
  <g id="Group_17079" data-name="Group 17079" transform="translate(-2805.82 -3148.179)">
    <g id="Group_17033" data-name="Group 17033">
      <g id="Group_17032" data-name="Group 17032">
        <path id="Path_24549" data-name="Path 24549" d="M3097.625,3220.183a54.278,54.278,0,0,0-3.921,29.979c2.254,14.706,11.618,22.24,14.3,39.775a54.527,54.527,0,0,1-92.936,46.349c-.1.045-16.908-19.931-43.205-15.9-11.476,1.756-18.892,6.961-30.442,8.733a63.4,63.4,0,1,1-19.205-125.341c13.556-2.079,23.024,3.118,39.474.6a46.962,46.962,0,0,0,35.581-26.815c.073.009,9.581-24.038,40.3-28.745a54.51,54.51,0,0,1,59.971,71.266A.673.673,0,0,1,3097.625,3220.183Z" fill="#fafafa"/>
      </g>
      <path id="Path_24550" data-name="Path 24550" d="M2968.327,3184.4c10.66-4.6,15.892-16.234,11.687-25.981s-13.842-7.182-24.5-2.581-18.314,9.5-14.107,19.243S2957.666,3189,2968.327,3184.4Z" fill="#fafafa"/>
    </g>
    <ellipse id="Ellipse_851" data-name="Ellipse 851" cx="177.622" cy="8.472" rx="177.622" ry="8.472" transform="translate(2805.82 3350.471)" fill="url(#linear-gradient)"/>
    <g id="Group_17034" data-name="Group 17034">
      <path id="Path_24551" data-name="Path 24551" d="M2853.665,3218.78l5.042,2.757-5.042,2.758-2.757,5.042-2.758-5.042-5.042-2.758,5.042-2.757,2.758-5.042Z" fill="#ff9797"/>
      <path id="Path_24552" data-name="Path 24552" d="M2865.884,3227.74l2.919,1.6-2.919,1.6-1.6,2.919-1.6-2.919-2.919-1.6,2.919-1.6,1.6-2.919Z" fill="#ff9797"/>
    </g>
    <g id="Group_17035" data-name="Group 17035">
      <path id="Path_24553" data-name="Path 24553" d="M3113.905,3235.7l-5.042,2.757,5.042,2.758,2.758,5.042,2.757-5.042,5.042-2.758-5.042-2.757-2.757-5.042Z" fill="#ff9797"/>
      <path id="Path_24554" data-name="Path 24554" d="M3101.686,3244.659l-2.919,1.6,2.919,1.6,1.6,2.919,1.6-2.919,2.919-1.6-2.919-1.6-1.6-2.919Z" fill="#ff9797"/>
    </g>
    <g id="Group_17038" data-name="Group 17038">
      <path id="Path_24555" data-name="Path 24555" d="M2899.663,3204.085s2.576,18.186,6.062,22.7,10.154,7.2,10.154,7.2,6.668-2.685,10.154-7.2,6.062-22.7,6.062-22.7l-16.216-5.859-16.216,5.859" fill="#ffa354"/>
      <path id="Path_24556" data-name="Path 24556" d="M2915.879,3200.765l-13.913,5.027s2.21,15.6,5.2,19.479,8.712,6.179,8.712,6.179,5.721-2.3,8.712-6.179,5.2-19.479,5.2-19.479Z" fill="#fff"/>
      <g id="Group_17037" data-name="Group 17037">
        <circle id="Ellipse_852" data-name="Ellipse 852" cx="6.842" cy="6.842" r="6.842" transform="translate(2907.648 3219.46) rotate(-76.717)" fill="#f99c00"/>
        <g id="Group_17036" data-name="Group 17036">
          <path id="Path_24557" data-name="Path 24557" d="M2914.185,3217.762a.288.288,0,0,1-.4-.007l-2.995-2.994.928-.929,2.1,2.1a.288.288,0,0,0,.4.007l5.759-5.362.9.962Z" fill="#fff"/>
        </g>
      </g>
    </g>
    <g id="Group_17047" data-name="Group 17047">
      <path id="Path_24558" data-name="Path 24558" d="M3004.86,3237.321l-6.02,36.956s17.986,19.355,24.086,22.875S3041.4,3307.3,3041.4,3307.3l28.969,46.83,51.613.342s-52.836-70.934-53.3-75.157,2.816-29.564,2.346-32.144-5.865-17.128-6.335-19.944-6.8-4.927-8.212.7-.93,14.635.977,19.2c1.6,3.829.037,7.911-.667,7.676s-5-4.589-5-4.589S3007.675,3235.679,3004.86,3237.321Z" fill="url(#linear-gradient-2)"/>
      <g id="Group_17045" data-name="Group 17045">
        <rect id="Rectangle_5608" data-name="Rectangle 5608" width="66.523" height="107.923" rx="23.641" transform="translate(3058.513 3296.066) rotate(180)" fill="#52595e"/>
        <path id="Path_24559" data-name="Path 24559" d="M3024.084,3192.49a1.168,1.168,0,1,0,1.168-1.169A1.168,1.168,0,0,0,3024.084,3192.49Z" fill="#ff5c5c"/>
        <path id="Path_24560" data-name="Path 24560" d="M2997.846,3190.949h19.826a1.992,1.992,0,0,1,1.992,1.992,1.992,1.992,0,0,0,1.992,1.992h7.192a1.992,1.992,0,0,0,1.992-1.992,1.992,1.992,0,0,1,1.992-1.992h19.826a3.525,3.525,0,0,1,3.525,3.525v96.2a2.864,2.864,0,0,1-2.812,2.912h-56.239a2.863,2.863,0,0,1-2.811-2.912v-96.206A3.525,3.525,0,0,1,2997.846,3190.949Z" fill="#e6f4f5"/>
        <g id="Group_17042" data-name="Group 17042">
          <g id="Group_17041" data-name="Group 17041" clip-path="url(#clip-path)">
            <g id="Group_17040" data-name="Group 17040">
              <g id="Group_17039" data-name="Group 17039">
                <path id="Path_24561" data-name="Path 24561" d="M3060.749,3276.733a2.273,2.273,0,0,0-.024-.283c-.245-1.726-2.239-2.946-4.455-2.724l-64.446,6.451c-2.216.221-3.813,1.8-3.568,3.526s2.239,2.946,4.455,2.724l64.446-6.451C3059.251,3279.767,3060.793,3278.345,3060.749,3276.733Z" fill="#6d8599"/>
              </g>
              <path id="Path_24562" data-name="Path 24562" d="M3027.517,3258.038l.225,14.456a1.05,1.05,0,0,0,1.149,1.063l19.3-2.447a1.069,1.069,0,0,0,.905-1.081V3258.02a1.058,1.058,0,0,0-1.027-1.088h-19.522A1.06,1.06,0,0,0,3027.517,3258.038Z" fill="#6bb2ab" opacity="0.44"/>
              <path id="Path_24563" data-name="Path 24563" d="M2992.684,3289.057l.338-.48h0l.338-.48a.515.515,0,0,0-.3-.116c1.232.015,43.763-4.075,66.08-6.24l.1,1.194c-.165.016-16.68,1.618-33.008,3.179-9.591.918-17.24,1.642-22.737,2.153-3.265.3-5.8.534-7.526.685C2992.892,3289.222,2992.892,3289.222,2992.684,3289.057Z" fill="#fff"/>
              <path id="Path_24564" data-name="Path 24564" d="M3003.575,3276.948l16.072-1.541a.367.367,0,0,0,.321-.373V3275a.36.36,0,0,0-.384-.339l-15.7,1.506-.534-16.867,5.506-.62.478,15.291a.354.354,0,1,0,.707-.012v-.013l-.479-15.345,6.581-.741.473,14.545a.354.354,0,1,0,.707-.013v-.013l-.475-14.6.2-.022a2.489,2.489,0,0,0,1.165-.451l1.148-.824a2.677,2.677,0,0,0,1.886.789,2.636,2.636,0,0,0,1.055-.222l1.5,2.111.437,14.819a.637.637,0,1,0,1.272-.021v-.021l-.444-15.033a.7.7,0,0,0-.128-.385l-1.607-2.258a2.991,2.991,0,0,0,.6-1.211h17.2a2.473,2.473,0,0,0,1.85-.837,2.777,2.777,0,0,0,.712-1.874c0-.04,0-.08,0-.12l-.544-13.462a2.817,2.817,0,0,0-.607-1.64l-9.406-11.741a.679.679,0,0,0-1-.086.78.78,0,0,0-.081,1.056l8.022,10.013-7.44,1.252c-.009-.016-.019-.032-.03-.048l-5.089-7.351a2.4,2.4,0,0,0-3.276-.711,2.648,2.648,0,0,0-1.172,1.736,2.775,2.775,0,0,0,.423,2.087l3.517,5.137a2.559,2.559,0,0,0,.595.618l-2.6,5.513-6.43-8.73a.612.612,0,0,0-.893-.117.7.7,0,0,0-.11.947l6.8,9.236-2.6,5.52a2.572,2.572,0,0,0-.529-.055,2.663,2.663,0,0,0-1.688.61l-3.443-3.081a1.216,1.216,0,0,1-.191-.215l-8.55-12.152,17.926-15.265,6.407-3.086c1.171,1.462,4.309,5.4,7.453,9.549,7.282,9.606,8.052,11.678,8.115,12.085.472,3.064-.007,14.3-.012,14.415a1.078,1.078,0,0,0,.279.779.964.964,0,0,0,.727.318l22.55-.42a.967.967,0,0,0,.724-.353,1.091,1.091,0,0,0,.248-.695c0-.037,0-.073,0-.11l-.792-7.966a1.009,1.009,0,0,0-1.023-.938l-17.209.725a1.05,1.05,0,0,0,.079,2.1l16.282-.686.581,5.85-20.419.38c.111-2.985.361-11.027-.057-13.734-.1-.623-.351-2.277-8.528-13.064-2.324-3.065-4.643-6.016-6.175-7.947l2.912-2.344,9.72,12.912-1.872,1.48a.489.489,0,0,0-.091.659.429.429,0,0,0,.623.1l5.37-4.244,3.28,4.326a.665.665,0,0,0,.972.112.764.764,0,0,0,.106-1.031l-3.248-4.284,7.782-6.149.531,4.4v7.266a.247.247,0,1,0,.494,0v-7.283c0-.011,0-.022,0-.033l-.573-4.752c.015-.018.032-.034.047-.053l2.042-2.563a1.833,1.833,0,0,0,1.431.113l.559.875a.893.893,0,0,1,.133.387L3066,3230.97a.5.5,0,0,0,.544.465.517.517,0,0,0,.439-.576l-.193-1.92,11.351-.4a.24.24,0,0,0,.177-.088.273.273,0,0,0,.061-.2l-1.017-11.906a.253.253,0,0,0-.246-.238h-.022a.258.258,0,0,0-.224.284l.993,11.63-11.125.4-.409-4.078,10.086-.354a.263.263,0,0,0-.008-.524h-.009l-10.121.355-.489-4.875,9.594-.35a.263.263,0,0,0-.009-.524h-.008l-9.629.352-.015-.149a1.978,1.978,0,0,0-.3-.863l-.543-.85a2.112,2.112,0,0,0,.52-1.4,2.149,2.149,0,0,0-.146-.782l1.393-1.113,9.774-.324a.472.472,0,0,0-.014-.942h-.014l-9.915.328a.433.433,0,0,0-.254.1l-1.49,1.191a1.9,1.9,0,0,0-.8-.443v-12.742a1.941,1.941,0,0,0-.551-1.37,1.723,1.723,0,0,0-1.237-.527c-.026,0-.052,0-.079,0l-8.879.4a1.742,1.742,0,0,0-1.082.449l-7.744,6.968a.546.546,0,0,0-.057.738.475.475,0,0,0,.7.06l6.6-5.942.826,5.511-.032.022-4.848,3.77a1.912,1.912,0,0,0-.469,2.427,1.755,1.755,0,0,0,1.145.868,1.665,1.665,0,0,0,1.376-.314l3.389-2.6a1.8,1.8,0,0,0,.407-.44l3.636,1.925-5.758,4.763a.492.492,0,0,0-.077.662.428.428,0,0,0,.624.081l6.093-5.039,3.64,1.928a2.2,2.2,0,0,0-.036.392,2.126,2.126,0,0,0,.4,1.25l-2.031,2.551a.9.9,0,0,1-.142.141l-8.015,6.334-10.069-13.28-2.036-4.746c.965-.867,3.563-3.191,6.3-5.521,6.336-5.394,7.7-5.965,7.97-6.011,2.022-.35,9.434.005,9.509.009a.664.664,0,0,0,.513-.207.757.757,0,0,0,.21-.538l-.277-16.705a.753.753,0,0,0-.233-.536.67.67,0,0,0-.458-.184c-.024,0-.048,0-.073,0l-5.254.586a.722.722,0,0,0-.619.759l.479,12.747a.709.709,0,0,0,.718.7.718.718,0,0,0,.664-.762l-.452-12.061,3.858-.431.251,15.126a69.9,69.9,0,0,0-9.059.042c-.41.071-1.5.26-8.616,6.317-3.323,2.829-6.442,5.649-6.706,5.888l-7.979,6.211-15.714-22.672c-.111-.165-2.96-4.346-6.543-4.8a5.093,5.093,0,0,0-4.212,1.466,1.091,1.091,0,0,0-.1,1.479.95.95,0,0,0,1.4.1,3.22,3.22,0,0,1,2.68-.966c2.26.284,4.5,2.943,5.174,3.943l17.4,25.1-5.779,2.783-12.879-17.964a.628.628,0,0,0-.424-.26.607.607,0,0,0-.472.135l-18.72,15.355a.7.7,0,0,0-.114.945.613.613,0,0,0,.893.121l18.212-14.938,3.792,5.289-24.27,20.575a.7.7,0,0,0-.1.948.611.611,0,0,0,.894.1l24.245-20.554,4.179,5.828-17.431,14.737-2-2.838a.612.612,0,0,0-.89-.137.7.7,0,0,0-.13.944l5.729,8.142-5.839,4.972a1.092,1.092,0,0,0-.152,1.474.953.953,0,0,0,1.392.161l5.783-4.924,8.3,11.8-5.942.8h-9.809a.375.375,0,0,0,0,.749h9.831l.045,0,6.415-.869c.024.024.047.05.072.073l3.46,3.095a3.056,3.056,0,0,0-.282,1.284,3.1,3.1,0,0,0,.129.885l-1.182.848a1.111,1.111,0,0,1-.522.2l-16.994,1.913a.74.74,0,0,0-.628.824.718.718,0,0,0,.778.666l2.591-.292.545,17.209a.382.382,0,0,0,.119.268A.338.338,0,0,0,3003.575,3276.948Zm49.018-69.183.223,1.488a.922.922,0,0,1-.341.872l-3.388,2.6a.809.809,0,0,1-.5.173.82.82,0,0,1-.176-.019.852.852,0,0,1-.561-.425.935.935,0,0,1,.23-1.187Zm4.575-7.961.242,11.71-3.7-1.959a2,2,0,0,0-.014-.45l-1.29-8.61.345-.311a.783.783,0,0,1,.485-.2Zm4.763,14.1-3.622-1.917-.252-12.228,4.058-.184a.77.77,0,0,1,.589.235.87.87,0,0,1,.247.614v12.753A1.94,1.94,0,0,0,3061.931,3213.908Zm1.524,2.485a1.174,1.174,0,1,1,1.106-1.173A1.141,1.141,0,0,1,3063.455,3216.393Zm-25.309-.819,2.7-2.171,9.789,12.91-2.76,2.181Zm-4.194,2.194c-.665-.835-1.1-1.374-1.2-1.5l-1.553-2.241,7.314-5.693,1.836,4.28Zm-27.761,17.106-2.944-4.184,17.44-14.745,2.931,4.089Zm25.038,2.975-2.009.338a1.182,1.182,0,0,1-1.177-.517l-3.517-5.137a1.331,1.331,0,0,1-.233-.753,1.433,1.433,0,0,1,.026-.268,1.278,1.278,0,0,1,.574-.849,1.171,1.171,0,0,1,1.6.348Zm-5.061,7.3,2.645-5.61a2.384,2.384,0,0,0,.607-.022l11.624-1.956.42.524a1.274,1.274,0,0,1,.272.736l.241,5.962Zm-2.25,8.4a2.944,2.944,0,0,0-.982-1.547l2.589-5.491,16.506-.382.249,6.151a1.247,1.247,0,0,1-.318.894,1.108,1.108,0,0,1-.829.375Zm-2.753,2.44a1.68,1.68,0,1,1,1.583-1.677A1.631,1.631,0,0,1,3021.165,3255.993Z" fill="#fff"/>
              <path id="Path_24565" data-name="Path 24565" d="M3025.183,3202.434c1.34,1.9,4.242,6.015,5.232,7.419a.552.552,0,0,0,.8.128l9.639-7.419a.615.615,0,0,0-.337-1.1h-14.872A.611.611,0,0,0,3025.183,3202.434Z" fill="#6bb2ab" opacity="0.44"/>
            </g>
          </g>
        </g>
        <g id="Group_17043" data-name="Group 17043">
          <path id="Path_24567" data-name="Path 24567" d="M3001.12,3227.052c0,3.656,4.863,8.965,4.863,8.965s4.86-5.28,4.86-8.965a4.861,4.861,0,1,0-9.723,0Z" fill="#f65662"/>
          <circle id="Ellipse_853" data-name="Ellipse 853" cx="2.958" cy="2.958" r="2.958" transform="translate(3003.025 3224.094)" fill="#fff"/>
        </g>
        <g id="Group_17044" data-name="Group 17044">
          <path id="Path_24568" data-name="Path 24568" d="M3045.392,3247.264c0,2.932,3.9,7.192,3.9,7.192s3.9-4.236,3.9-7.192a3.9,3.9,0,1,0-7.8,0Z" fill="#7d3f95"/>
          <path id="Path_24569" data-name="Path 24569" d="M3046.92,3247.264a2.373,2.373,0,1,0,2.373-2.373A2.372,2.372,0,0,0,3046.92,3247.264Z" fill="#fff"/>
        </g>
      </g>
      <g id="Group_17046" data-name="Group 17046">
        <path id="Path_24570" data-name="Path 24570" d="M2983.681,3224.51c1.261-3.782,7.681-5.027,7.953-5.078l.356-.067v13.005l-.414-.17C2991.2,3232.046,2982.388,3228.391,2983.681,3224.51Z" fill="url(#linear-gradient-2)"/>
        <path id="Path_24571" data-name="Path 24571" d="M2984.719,3239.458c.853-2.134,6.628-4.2,6.873-4.288l.4-.142.012,4.351c1.246.6,8.409,4.154,10.136,7.993.94,2.087.234,4.329-1.987,6.313a3.078,3.078,0,0,1-3.364.5c-1.192-.56-2.96-1.4-4.785-2.275l.006,1.992c1.246.6,8.408,4.154,10.136,7.993,1.374,3.055-.977,5.537-2.5,6.743a2.3,2.3,0,0,1-2.419.271c-1.171-.549-3.164-1.487-5.229-2.482l.006,2.228c1.01.486,5.923,2.965,7.131,5.648.7,1.562.143,3.225-1.575,4.681a2.041,2.041,0,0,1-2.183.294c-1.357-.637-3.936-1.856-5.954-2.865-3-1.5-3.364-6.071-2.721-7.68.48-1.2,3.006-2.332,4.233-2.82-.828-.4-1.647-.8-2.409-1.186-4.2-2.1-4.7-8.5-3.8-10.746.5-1.257,2.676-2.485,4.623-3.367-.281-.138-.557-.274-.825-.408C2984.321,3248.1,2983.818,3241.709,2984.719,3239.458Z" fill="url(#linear-gradient-2)"/>
      </g>
    </g>
    <g id="Group_17059" data-name="Group 17059">
      <path id="Path_24572" data-name="Path 24572" d="M2831.759,3359.635c0,.882,42.117,1.6,94.077,1.6s94.07-.722,94.07-1.6-42.114-1.6-94.07-1.6S2831.759,3358.753,2831.759,3359.635Z" opacity="0.15" style="mix-blend-mode: multiply;isolation: isolate"/>
      <g id="Group_17058" data-name="Group 17058">
        <g id="Group_17048" data-name="Group 17048">
          <path id="Path_24573" data-name="Path 24573" d="M2970.741,3346.581h45.3c.611-.719,4.475-5.489,4.451-9.2h0c0-.09,0-.17,0-.264h-3.666a.272.272,0,0,1-.271-.264h0s-.215-13.359-.215-16.338h0c.128-2.586-6.551-5.722-13.27-7.322h0l-6.742-1.67h0c-.121-.083-21.643-21.025-27.1-27.164h0c-4.284-4.819-9.648-5.312-20.248-5.312h0c-2.5,0-5.27.028-8.4.031v67.5Z" fill="#c73338"/>
        </g>
        <path id="Path_24574" data-name="Path 24574" d="M2940.3,3278.8v68.058h75.874s5-5.753,4.565-10.016h-3.916s-.212-13.356-.212-16.328c0-2.951-6.739-5.923-13.474-7.59l-6.746-1.673s-21.525-20.956-26.962-27.066S2956.826,3278.8,2940.3,3278.8Z" fill="url(#linear-gradient-5)"/>
        <path id="Path_24575" data-name="Path 24575" d="M2940.3,3318.681v-7.173h57.119c.892.219,2.559.636,5.718,1.42,5.329,1.313,10.652,3.451,12.644,5.753Z" opacity="0.3" fill="url(#linear-gradient-6)" style="mix-blend-mode: screen;isolation: isolate"/>
        <path id="Path_24576" data-name="Path 24576" d="M2842.04,3335.731h98.7v8.156h-36.742v3.347h-56.31v-3.347h-5.645Z" fill="#4f4f4f"/>
        <g id="Group_17049" data-name="Group 17049">
          <path id="Path_24577" data-name="Path 24577" d="M3016.833,3337.12v-.552h-11.627v.552Z" fill="url(#linear-gradient-7)" style="mix-blend-mode: multiply;isolation: isolate"/>
        </g>
        <g id="Group_17050" data-name="Group 17050">
          <path id="Path_24578" data-name="Path 24578" d="M2975.063,3293.583c-.979-2.02-3.864-2.27-7.419-2.27h-.32c-.513,0-1.041.007-1.579.007H2955.8V3310.8l28.188.18h0c-1.257-2.444-7.749-15.054-8.926-17.394Z" fill="#c73338"/>
        </g>
        <g id="Group_17051" data-name="Group 17051">
          <path id="Path_24579" data-name="Path 24579" d="M3014.062,3330.076h2.4c-.056-3.35-.1-7.041-.111-8.905h-2.285v8.905Z" fill="#c73338"/>
        </g>
        <g id="Group_17052" data-name="Group 17052">
          <path id="Path_24580" data-name="Path 24580" d="M2914.212,3348.338v0Zm22.5-.549v-9.468h-21.949v9.468Z" fill="#ccc"/>
        </g>
        <rect id="Rectangle_5609" data-name="Rectangle 5609" width="82.182" height="4.295" transform="translate(2846.376 3331.631)" fill="#3d3d3d"/>
        <g id="Group_17053" data-name="Group 17053">
          <path id="Path_24581" data-name="Path 24581" d="M2860.475,3346.22a13.776,13.776,0,1,0,13.773-13.776A13.765,13.765,0,0,0,2860.475,3346.22Z" fill="#0d0d0d"/>
          <path id="Path_24582" data-name="Path 24582" d="M2860.475,3346.394a13.776,13.776,0,1,0,13.773-13.78A13.77,13.77,0,0,0,2860.475,3346.394Z" fill="#020202"/>
          <path id="Path_24583" data-name="Path 24583" d="M2874.248,3333.464a14.323,14.323,0,0,0-10.1,4.194,12.848,12.848,0,0,1,20.192,0A14.169,14.169,0,0,0,2874.248,3333.464Z" fill="#2b2a54" opacity="0.6" style="mix-blend-mode: screen;isolation: isolate"/>
          <path id="Path_24584" data-name="Path 24584" d="M2866.766,3346.22a7.483,7.483,0,1,0,7.482-7.482A7.481,7.481,0,0,0,2866.766,3346.22Z" fill="#b1afb3"/>
          <path id="Path_24585" data-name="Path 24585" d="M2869.3,3346.22a4.953,4.953,0,1,0,4.947-4.954A4.946,4.946,0,0,0,2869.3,3346.22Z" fill="#e6e6e6"/>
          <path id="Path_24586" data-name="Path 24586" d="M2874.248,3354.327a8.118,8.118,0,0,0,7.225-4.524,7.832,7.832,0,0,1-14.447,0A8.11,8.11,0,0,0,2874.248,3354.327Z" fill="#333"/>
        </g>
        <path id="Path_24587" data-name="Path 24587" d="M2993.6,3330.968a15.428,15.428,0,0,1,15.429,15.426c0,.159-.018.312-.018.468H2978.2c0-.156-.021-.309-.021-.468A15.432,15.432,0,0,1,2993.6,3330.968Z" fill="#121c38"/>
        <g id="Group_17054" data-name="Group 17054">
          <path id="Path_24588" data-name="Path 24588" d="M2979.83,3346.22a13.776,13.776,0,1,0,13.773-13.776A13.765,13.765,0,0,0,2979.83,3346.22Z" fill="#0d0d0d"/>
          <path id="Path_24589" data-name="Path 24589" d="M2979.83,3346.394a13.776,13.776,0,1,0,13.773-13.78A13.77,13.77,0,0,0,2979.83,3346.394Z" fill="#020202"/>
          <path id="Path_24590" data-name="Path 24590" d="M2993.6,3333.464a14.309,14.309,0,0,0-10.093,4.194,12.841,12.841,0,0,1,20.185,0A14.14,14.14,0,0,0,2993.6,3333.464Z" fill="#2b2a54" opacity="0.6" style="mix-blend-mode: screen;isolation: isolate"/>
          <path id="Path_24591" data-name="Path 24591" d="M2986.121,3346.22a7.481,7.481,0,1,0,7.482-7.482A7.481,7.481,0,0,0,2986.121,3346.22Z" fill="#b1afb3"/>
          <path id="Path_24592" data-name="Path 24592" d="M2988.273,3346.22a5.333,5.333,0,1,0,5.33-5.336A5.331,5.331,0,0,0,2988.273,3346.22Z" fill="#e6e6e6"/>
          <path id="Path_24593" data-name="Path 24593" d="M2993.6,3354.327a8.1,8.1,0,0,0,7.221-4.524,7.829,7.829,0,0,1-14.443,0A8.109,8.109,0,0,0,2993.6,3354.327Z" fill="#333"/>
        </g>
        <g id="Group_17055" data-name="Group 17055">
          <path id="Path_24594" data-name="Path 24594" d="M2949.833,3346.23v-55.573a.271.271,0,0,0-.274-.268h0a.272.272,0,0,0-.278.268h0v55.573a.285.285,0,0,0,.278.278h0a.285.285,0,0,0,.274-.278Z" fill="url(#linear-gradient-8)" style="mix-blend-mode: multiply;isolation: isolate"/>
        </g>
        <rect id="Rectangle_5610" data-name="Rectangle 5610" width="6.812" height="1.781" transform="translate(2955.805 3314.029)" fill="url(#linear-gradient-9)" style="mix-blend-mode: multiply;isolation: isolate"/>
        <path id="Path_24595" data-name="Path 24595" d="M3016.732,3330.357h-2.947V3320.9h2.829C3016.621,3322.7,3016.673,3326.76,3016.732,3330.357Z" fill="#f2f5d2"/>
        <path id="Path_24596" data-name="Path 24596" d="M2995.144,3310.04l-.708.66h-7.169l-9.846-18.214C2983.979,3299.111,2992.1,3307.054,2995.144,3310.04Z" fill="#d0ebeb"/>
        <path id="Path_24597" data-name="Path 24597" d="M2984.437,3311.255s-7.829-15.207-9.131-17.8-5.218-2.409-9.561-2.409h-10.221v20.026Z" fill="#d0ebeb"/>
        <rect id="Rectangle_5611" data-name="Rectangle 5611" width="23.046" height="10.576" transform="translate(2914.212 3337.769)" fill="url(#linear-gradient-10)"/>
        <g id="Group_17057" data-name="Group 17057">
          <g id="Group_17056" data-name="Group 17056">
            <path id="Path_24598" data-name="Path 24598" d="M2833.457,3331.3v0Z" fill="#ccc"/>
          </g>
          <rect id="Rectangle_5612" data-name="Rectangle 5612" width="102.062" height="62.583" rx="3.555" transform="translate(2833.457 3269.218)" fill="#ff5c5c"/>
        </g>
        <rect id="Rectangle_5613" data-name="Rectangle 5613" width="87.761" height="0.549" transform="translate(2840.814 3285.404)" fill="#fff"/>
        <rect id="Rectangle_5614" data-name="Rectangle 5614" width="87.761" height="0.549" transform="translate(2840.814 3300.763)" fill="#fff"/>
        <rect id="Rectangle_5615" data-name="Rectangle 5615" width="87.761" height="0.555" transform="translate(2840.814 3316.126)" fill="#fff"/>
      </g>
    </g>
    <g id="Group_17068" data-name="Group 17068">
      <g id="Group_17067" data-name="Group 17067">
        <g id="Group_17061" data-name="Group 17061">
          <g id="Group_17060" data-name="Group 17060">
            <path id="Rectangle_5616" data-name="Rectangle 5616" d="M.461,0H24.044a.46.46,0,0,1,.46.46V19.907a.46.46,0,0,1-.46.46H.46a.46.46,0,0,1-.46-.46V.461A.461.461,0,0,1,.461,0Z" transform="translate(3081.309 3338.257)" fill="url(#linear-gradient-11)"/>
          </g>
          <path id="Path_24599" data-name="Path 24599" d="M3097.7,3341.066a.859.859,0,0,1-.86.863h-6.548a.86.86,0,0,1-.861-.863h0a.859.859,0,0,1,.861-.858h6.548a.858.858,0,0,1,.86.858Z" fill="#ec9821"/>
          <path id="Path_24600" data-name="Path 24600" d="M3081.309,3338.714V3339h24.5v-.287a.441.441,0,0,0-.071-.228h-24.359A.417.417,0,0,0,3081.309,3338.714Z" fill="#ffab70" opacity="0.3" style="mix-blend-mode: screen;isolation: isolate"/>
        </g>
        <path id="Path_24601" data-name="Path 24601" d="M3105.225,3358.163v-19.449a.457.457,0,0,0-.458-.457h-5.657v19.824a.545.545,0,0,0,.541.543h5.116A.46.46,0,0,0,3105.225,3358.163Z" opacity="0.6" fill="url(#linear-gradient-12)" style="mix-blend-mode: multiply;isolation: isolate"/>
        <g id="Group_17064" data-name="Group 17064">
          <g id="Group_17063" data-name="Group 17063">
            <g id="Group_17062" data-name="Group 17062">
              <path id="Rectangle_5617" data-name="Rectangle 5617" d="M.543,0H28.3a.54.54,0,0,1,.54.54V23.433a.541.541,0,0,1-.541.541H.54a.54.54,0,0,1-.54-.54V.543A.543.543,0,0,1,.543,0Z" transform="translate(3100.958 3334.65)" fill="url(#linear-gradient-13)"/>
            </g>
          </g>
          <path id="Path_24602" data-name="Path 24602" d="M3120.245,3337.96a1.013,1.013,0,0,1-1.015,1.012h-7.705a1.012,1.012,0,0,1-1.014-1.012h0a1.015,1.015,0,0,1,1.014-1.015h7.705a1.016,1.016,0,0,1,1.015,1.015Z" fill="#ec9821"/>
          <path id="Path_24603" data-name="Path 24603" d="M3100.958,3335.191v.336H3129.8v-.336a.526.526,0,0,0-.084-.273h-28.671A.517.517,0,0,0,3100.958,3335.191Z" fill="#ffab70" opacity="0.3" style="mix-blend-mode: screen;isolation: isolate"/>
        </g>
        <g id="Group_17066" data-name="Group 17066">
          <g id="Group_17065" data-name="Group 17065">
            <path id="Rectangle_5618" data-name="Rectangle 5618" d="M.38,0H19.788a.378.378,0,0,1,.378.378V16.387a.378.378,0,0,1-.378.378H.378A.378.378,0,0,1,0,16.386V.38A.38.38,0,0,1,.38,0Z" transform="translate(3106.141 3317.883)" fill="url(#linear-gradient-14)"/>
          </g>
          <path id="Path_24604" data-name="Path 24604" d="M3119.626,3320.2a.706.706,0,0,1-.708.707h-5.39a.706.706,0,0,1-.707-.707h0a.708.708,0,0,1,.707-.709h5.39a.708.708,0,0,1,.708.709Z" fill="#ec9821"/>
          <path id="Path_24605" data-name="Path 24605" d="M3106.141,3318.263v.234h20.166v-.234a.4.4,0,0,0-.059-.193H3106.2A.4.4,0,0,0,3106.141,3318.263Z" fill="#ffab70" opacity="0.3" style="mix-blend-mode: screen;isolation: isolate"/>
        </g>
      </g>
    </g>
    <g id="Group_17078" data-name="Group 17078">
      <g id="Group_17071" data-name="Group 17071">
        <g id="Group_17069" data-name="Group 17069">
          <path id="Path_24606" data-name="Path 24606" d="M3088.139,3358.955l-11.257-.446v-12.858h11.257Z" fill="#e6bd7b"/>
          <path id="Path_24607" data-name="Path 24607" d="M3092.709,3358.207l-4.57.748v-13.3h4.57Z" fill="#dcad69"/>
          <path id="Path_24608" data-name="Path 24608" d="M3083.826,3358.784l-1.735-.069v-13.064h1.735Z" fill="#d38732"/>
        </g>
        <rect id="Rectangle_5619" data-name="Rectangle 5619" width="1.187" height="4.111" transform="translate(3086.348 3346.298)" fill="#fbdcae"/>
        <g id="Group_17070" data-name="Group 17070">
          <path id="Path_24609" data-name="Path 24609" d="M3077.152,3358.121l.741.035v-.734l-.741-.036Z" fill="#d38732"/>
          <path id="Path_24610" data-name="Path 24610" d="M3078.249,3358.17l.742.036v-.734l-.742-.035Z" fill="#d38732"/>
          <path id="Path_24611" data-name="Path 24611" d="M3079.377,3357.493v.734l.742.035v-.734Z" fill="#d38732"/>
        </g>
      </g>
      <g id="Group_17074" data-name="Group 17074">
        <g id="Group_17072" data-name="Group 17072">
          <path id="Path_24612" data-name="Path 24612" d="M3052.914,3359.468l23.383-.926v-26.708h-23.383Z" fill="#e6bd7b"/>
          <path id="Path_24613" data-name="Path 24613" d="M3043.422,3357.914l9.491,1.554v-27.634h-9.491Z" fill="#dcad69"/>
          <path id="Path_24614" data-name="Path 24614" d="M3061.873,3359.113l3.6-.143v-27.136h-3.6Z" fill="#d38732"/>
        </g>
        <rect id="Rectangle_5620" data-name="Rectangle 5620" width="2.465" height="8.54" transform="translate(3056.635 3341.719) rotate(180)" fill="#fbdcae"/>
        <g id="Group_17073" data-name="Group 17073">
          <path id="Path_24615" data-name="Path 24615" d="M3075.735,3357.736l-1.54.074v-1.525l1.54-.074Z" fill="#d38732"/>
          <path id="Path_24616" data-name="Path 24616" d="M3073.458,3357.839l-1.54.074v-1.525l1.54-.074Z" fill="#d38732"/>
          <path id="Path_24617" data-name="Path 24617" d="M3071.114,3356.432v1.525l-1.54.074v-1.525Z" fill="#d38732"/>
        </g>
      </g>
      <g id="Group_17077" data-name="Group 17077">
        <g id="Group_17075" data-name="Group 17075">
          <path id="Path_24618" data-name="Path 24618" d="M3037.016,3358.864l-13.012-.515v-14.863h13.012Z" fill="#e6bd7b"/>
          <path id="Path_24619" data-name="Path 24619" d="M3042.3,3358l-5.282.865v-15.378h5.282Z" fill="#dcad69"/>
          <path id="Path_24620" data-name="Path 24620" d="M3032.03,3358.667l-2.005-.079v-15.1h2.005Z" fill="#d38732"/>
        </g>
        <rect id="Rectangle_5621" data-name="Rectangle 5621" width="1.372" height="4.752" transform="translate(3034.945 3344.235)" fill="#fbdcae"/>
        <g id="Group_17076" data-name="Group 17076">
          <path id="Path_24621" data-name="Path 24621" d="M3024.316,3357.9l.857.041v-.849l-.857-.041Z" fill="#d38732"/>
          <path id="Path_24622" data-name="Path 24622" d="M3025.583,3357.958l.857.041v-.849l-.857-.041Z" fill="#d38732"/>
          <path id="Path_24623" data-name="Path 24623" d="M3026.887,3357.175v.849l.857.041v-.849Z" fill="#d38732"/>
        </g>
      </g>
    </g>
  </g>
</svg>